<?xml version="1.0" encoding="utf-8"?>
<!-- Generator: Adobe Illustrator 22.1.0, SVG Export Plug-In . SVG Version: 6.00 Build 0)  -->
<svg version="1.1" id="Layer_1" xmlns="http://www.w3.org/2000/svg" xmlns:xlink="http://www.w3.org/1999/xlink" x="0px" y="0px"
	 viewBox="0 0 152 35" style="enable-background:new 0 0 152 25;" xml:space="preserve">
<style type="text/css">
	.st0{fill:#2F2F2F;}
	.st1{fill:#FC324D;}
</style>

<path class="st0" d="M47.7,11c1.6,0,2.8,0.7,3.6,2.1H57c-0.7-2-1.8-3.6-3.5-4.8s-3.6-1.7-5.8-1.7c-2.8,0-5.2,0.9-7.1,2.8 c-1.9,1.9-2.9,4.3-2.9,7.2s1,5.3,2.9,7.2c1.9,1.9,4.3,2.8,7.1,2.8c2.2,0,4.1-0.6,5.8-1.7c1.7-1.2,2.9-2.8,3.5-4.8h-5.7 c-0.7,1.4-1.9,2.1-3.6,2.1c-1.6,0-2.9-0.5-3.8-1.5c-0.9-1-1.4-2.4-1.4-4.1s0.5-3.1,1.4-4.1C44.8,11.5,46.1,11,47.7,11z M66.5,10.7 c-2.3,0-4.2,0.7-5.8,2.2c-1.6,1.4-2.3,3.4-2.3,5.8s0.8,4.3,2.3,5.8c1.6,1.5,3.5,2.2,5.8,2.2s4.2-0.7,5.8-2.2 c1.5-1.5,2.3-3.4,2.3-5.8s-0.8-4.3-2.3-5.8C70.7,11.5,68.7,10.7,66.5,10.7z M68.8,21.6c-0.6,0.7-1.4,1-2.3,1s-1.7-0.3-2.3-1 c-0.7-0.7-1-1.6-1-2.9s0.3-2.2,1-2.9c0.6-0.7,1.4-1,2.3-1s1.7,0.3,2.3,1c0.6,0.7,1,1.6,1,2.9C69.7,20,69.4,20.9,68.8,21.6z M83.9,14.8c1,0,1.7,0.5,2.2,1.4h5.1c-0.4-1.7-1.3-3.1-2.6-4c-1.3-0.9-2.9-1.4-4.8-1.4c-2.3,0-4.1,0.7-5.6,2.2 c-1.4,1.4-2.2,3.4-2.2,5.8s0.7,4.4,2.2,5.8c1.4,1.5,3.3,2.2,5.6,2.2c1.9,0,3.4-0.5,4.8-1.5c1.3-1,2.2-2.3,2.6-4H86 c-0.3,0.5-0.6,0.9-0.9,1.1s-0.8,0.3-1.4,0.3c-0.9,0-1.7-0.4-2.2-1.1s-0.7-1.7-0.7-2.8c0-1.2,0.2-2.1,0.7-2.8 C82.1,15.1,82.8,14.8,83.9,14.8z M102.4,10.9l-4.8,6.5V5.8h-4.8v20.7h4.8v-6.2l4.9,6.2h6.3l-6.6-7.6l6.6-8H102.4z M119.7,10.7 c-2,0-3.5,0.7-4.5,2.2v-2h-4.8v23h4.8v-9.7c1.1,1.6,2.6,2.5,4.6,2.5c1.9,0,3.6-0.7,5-2.2s2.1-3.4,2.1-5.7s-0.7-4.2-2.1-5.7 C123.3,11.5,121.7,10.7,119.7,10.7z M120.9,21.6c-0.7,0.7-1.5,1-2.4,1s-1.7-0.3-2.4-1c-0.7-0.7-1-1.6-1-2.8c0-1.2,0.3-2.2,1-2.8 c0.7-0.7,1.5-1,2.4-1s1.7,0.3,2.4,1c0.7,0.7,1,1.6,1,2.8C121.9,19.9,121.6,20.9,120.9,21.6z M130.9,4.3c-0.8,0-1.4,0.3-2,0.8 c-0.5,0.5-0.8,1.2-0.8,2s0.3,1.5,0.8,2s1.2,0.8,2,0.8s1.4-0.3,2-0.8c0.5-0.5,0.8-1.2,0.8-2s-0.3-1.5-0.8-2 C132.3,4.6,131.7,4.3,130.9,4.3z M128.5,26.5h4.8V10.9h-4.8V26.5z M142.8,22.4c-1,0-1.4-0.4-1.4-1.1v-6.5h3.1v-4h-3.1V7.1h-4.8v3.8 h-1.4v4h1.4v6.5c0,1.9,0.5,3.2,1.4,4c1,0.8,2.3,1.2,4,1.2h2.4v-4h-1.6V22.4z"></path>
<path class="st1" d="M150.2,22c-0.5-0.5-1.1-0.8-1.8-0.8s-1.3,0.3-1.8,0.8s-0.8,1.1-0.8,1.9c0,0.7,0.3,1.4,0.8,1.9s1.1,0.8,1.8,0.8 s1.3-0.3,1.8-0.8s0.8-1.1,0.8-1.9S150.7,22.5,150.2,22z M22.8,14.9L22.4,14c-0.4-0.9-1.3-1.5-2.2-1.5h-7.6c-1,0-1.8,0.6-2.2,1.5 L10,14.9V15c-0.4,0.9-0.2,1.9,0.4,2.6l1.1,1.3l2.4,2.7c0.2,0.2,0.4,0.4,0.7,0.5c0.4,0.2,0.7,0.3,1.1,0.3h1.5c0.4,0,0.8-0.1,1.1-0.3 c0.3-0.1,0.5-0.3,0.7-0.5l2.4-2.7l1.1-1.3C23.1,16.9,23.3,15.9,22.8,14.9L22.8,14.9z M16.4,1.1C7.9,1.1,1,7.7,1,16.3 c0,6.2,3.6,11.5,8.7,14c0.7,0.3,1.5,0.5,2.3,0.5h8.8c0.8,0,1.6-0.2,2.3-0.5c5.1-2.5,8.7-7.8,8.7-14C31.8,7.7,24.9,1.1,16.4,1.1z M28.5,14c-0.5-0.1-1.1,0-1.6,0.1c-0.7,0.2-1.9,0.4-2.9,0.6c0.5,1.2,0.2,2.7-0.7,3.7L22.8,19c1,0,2.2,0.1,3.3,0.1 c0.3,0,1.8,0.2,1.8,1c0,0.4-0.1,0.8-0.2,1.3c-0.9,1.9-2.3,3.5-4,4.7c-0.8,0.5-1.8,1-3,1.4c-2,0.6-2.3-1.1-2.3-1.7v-0.1 c-0.1-0.7-0.1-1.6-0.1-2.3c-0.4,0.1-0.7,0.2-1.1,0.2h-1.5c-0.4,0-0.8-0.1-1.1-0.2c0,0.8,0,1.8-0.1,2.6c-0.1,0.7-0.4,2.1-2.3,1.5 C10.9,27.1,9.9,26.6,9,26c-1.6-1.2-3-2.8-3.9-4.6C5,21,4.9,20.5,4.9,20.1c0-0.9,1.5-1,1.8-1c1-0.1,2.2-0.1,3.2-0.2l-0.5-0.6 c-0.9-1-1.1-2.4-0.7-3.7c-1-0.2-2.2-0.5-2.9-0.6c-0.4,0-1-0.1-1.5,0c-0.1,0-0.1,0-0.1,0c1.1-5.6,6.3-9.9,12.2-9.9S27.5,8.4,28.5,14 C28.6,14,28.6,14,28.5,14z"></path>
</svg>
