<?xml version="1.0" encoding="utf-8"?>
<!-- Generator: Adobe Illustrator 22.1.0, SVG Export Plug-In . SVG Version: 6.00 Build 0)  -->
<svg version="1.1" id="Layer_1" xmlns="http://www.w3.org/2000/svg" xmlns:xlink="http://www.w3.org/1999/xlink" x="0px" y="0px"
	 viewBox="0 0 24 24" style="enable-background:new 0 0 24 24;" xml:space="preserve">
<style type="text/css">
	.st0{fill:#FC324D;}
</style>
<path class="st0" d="M17,11.2l-0.3-0.7c-0.3-0.7-1-1.2-1.7-1.2H9c-0.8,0-1.4,0.5-1.7,1.2L7,11.2v0.1c-0.3,0.7-0.2,1.5,0.3,2l0.9,1
	l1.9,2.1c0.2,0.2,0.3,0.3,0.5,0.4c0.3,0.2,0.5,0.2,0.9,0.2h1.2c0.3,0,0.6-0.1,0.9-0.2c0.2-0.1,0.4-0.2,0.5-0.4l1.9-2.1l0.9-1
	C17.2,12.7,17.4,12,17,11.2L17,11.2z M12,0.4C5.4,0.4,0,5.6,0,12.3c0,4.8,2.8,9,6.8,10.9c0.5,0.2,1.2,0.4,1.8,0.4h6.9
	c0.6,0,1.2-0.2,1.8-0.4c4-1.9,6.8-6.1,6.8-10.9C24,5.6,18.6,0.4,12,0.4z M21.4,10.5c-0.4-0.1-0.9,0-1.2,0.1
	c-0.5,0.2-1.5,0.3-2.3,0.5c0.4,0.9,0.2,2.1-0.5,2.9L17,14.4c0.8,0,1.7,0.1,2.6,0.1c0.2,0,1.4,0.2,1.4,0.8c0,0.3-0.1,0.6-0.2,1
	c-0.7,1.5-1.8,2.7-3.1,3.7c-0.6,0.4-1.4,0.8-2.3,1.1c-1.6,0.5-1.8-0.9-1.8-1.3v-0.1c-0.1-0.5-0.1-1.2-0.1-1.8
	c-0.3,0.1-0.5,0.2-0.9,0.2h-1.2c-0.3,0-0.6-0.1-0.9-0.2c0,0.6,0,1.4-0.1,2c-0.1,0.5-0.3,1.6-1.8,1.2c-1-0.3-1.8-0.7-2.5-1.2
	c-1.2-0.9-2.3-2.2-3-3.6c-0.1-0.3-0.2-0.7-0.2-1c0-0.7,1.2-0.8,1.4-0.8c0.8-0.1,1.7-0.1,2.5-0.2l-0.4-0.5C5.8,13.1,5.7,12,6,10.9
	c-0.8-0.2-1.7-0.4-2.3-0.5c-0.3,0-0.8-0.1-1.2,0c-0.1,0-0.1,0-0.1,0C3.4,6.1,7.4,2.8,12,2.8S20.6,6.1,21.4,10.5
	C21.5,10.5,21.5,10.5,21.4,10.5z"/>
</svg>
